<svg width="485.000000" height="333.000000" viewBox="0 0 485 333" fill="none" xmlns="http://www.w3.org/2000/svg" xmlns:xlink="http://www.w3.org/1999/xlink">
	<desc>
			Created with Pixso.
	</desc>
	<defs>
		<clipPath id="clip700_26">
			<rect id="undraw_video_game_night_8h8m 1" width="485.000000" height="333.000000" transform="translate(0.000000 -0.500000)" fill="white" fill-opacity="0"/>
		</clipPath>
	</defs>
	<rect id="undraw_video_game_night_8h8m 1" width="485.000000" height="333.000000" transform="translate(0.000000 -0.500000)" fill="#FFFFFF" fill-opacity="0"/>
	<g clip-path="url(#clip700_26)">
		<path id="Vector" d="M416.37 138.53C423.06 145.57 430.52 146.7 438.75 141.9C435.29 136.35 434.47 130.3 435.39 123.94L419.36 123.94C420.07 129.53 419.88 134.74 416.37 138.53Z" fill="#FFB8B8" fill-opacity="1.000000" fill-rule="nonzero"/>
		<path id="Vector" d="M442.85 322.69L451.43 318.2L455.16 270.67L455.16 245.59L435.39 245.21L440.98 270.29L442.85 322.69Z" fill="#FFB8B8" fill-opacity="1.000000" fill-rule="nonzero"/>
		<path id="Vector" d="M417.99 322.69L409.41 318.2L405.68 270.67L405.68 245.59L425.45 245.21L419.85 270.29L417.99 322.69Z" fill="#FFB8B8" fill-opacity="1.000000" fill-rule="nonzero"/>
		<path id="Vector" d="M404.81 250.83L425.7 248.96L429.05 229.87L433.15 248.58L455.9 247.08C456.4 237.99 455.14 228.63 452.17 219.01L402.2 217.89L404.81 250.83Z" fill="#03183F" fill-opacity="1.000000" fill-rule="nonzero"/>
		<path id="Vector" d="M383.11 179.14L357.99 159.72C357.73 159.52 357.44 159.35 357.13 159.23L353.48 157.74C350.55 156.54 344.96 152.56 347.69 148.46C349.89 145.15 358.29 151.07 359.33 153.27C359.65 153.96 360.19 154.53 360.86 154.89L365.96 157.7C366.09 157.77 366.22 157.83 366.35 157.88L385.78 165.79C386.32 166.01 386.9 166.1 387.48 166.04C388.06 165.99 388.62 165.8 389.11 165.49L392.63 163.25C393.14 162.93 393.71 162.74 394.3 162.69C394.89 162.64 395.49 162.74 396.03 162.97C396.58 163.21 397.06 163.57 397.43 164.04C397.8 164.5 398.06 165.05 398.18 165.63L399.34 171.53C399.51 172.38 399.37 173.26 398.95 174.02C398.53 174.78 397.86 175.36 397.06 175.67L386.64 179.66C386.05 179.88 385.42 179.95 384.8 179.86C384.19 179.77 383.6 179.52 383.11 179.14Z" fill="#FFB8B8" fill-opacity="1.000000" fill-rule="nonzero"/>
		<path id="Vector" d="M387.77 164.99C394.73 163.12 394 172.87 399.3 177.67L409.74 169.4L403.69 140.03C402.07 140.5 400.58 141.33 399.34 142.48C398.09 143.62 397.13 145.04 396.53 146.62L387.77 164.99Z" fill="#9C0332" fill-opacity="1.000000" fill-rule="nonzero"/>
		<path id="Vector" d="M400.71 219.76L453.29 219.76C444.78 196.74 445.61 173.07 452.86 148.95C452.98 148.54 452.96 148.11 452.8 147.73C452.63 147.34 452.34 147.02 451.98 146.83L436.88 138.91C430.96 142.78 424.59 141.59 417.86 136.29L401.46 140.78C405.92 167.71 406.05 194.08 400.71 219.76Z" fill="#9C0332" fill-opacity="1.000000" fill-rule="nonzero"/>
		<path id="Vector" d="M413.86 331.49L391.95 332.42C390.99 332.46 390.06 332.14 389.32 331.53C388.58 330.92 388.1 330.06 387.96 329.11C387.81 328.16 388.03 327.18 388.57 326.38C389.11 325.57 389.92 325 390.86 324.77L394.58 323.85L409.19 315.35C411.35 317.6 414.33 319.51 417.97 321.13L418.02 327.1C418.02 328.23 417.59 329.32 416.82 330.14C416.04 330.95 414.98 331.44 413.86 331.49Z" fill="#03183F" fill-opacity="1.000000" fill-rule="nonzero"/>
		<path id="Vector" d="M484.78 332.5L0.17 332.5L0.17 331.29L485 331.29L484.78 332.5Z" fill="#3F3D56" fill-opacity="0.400000" fill-rule="nonzero"/>
		<path id="Vector" d="M446.8 331.15L468.71 332.08C469.66 332.13 470.6 331.81 471.34 331.2C472.07 330.59 472.56 329.73 472.7 328.78C472.84 327.82 472.62 326.85 472.09 326.04C471.55 325.24 470.73 324.66 469.79 324.43L466.08 323.52L451.47 315.02C449.31 317.27 446.33 319.17 442.68 320.79L442.64 326.77C442.63 327.9 443.06 328.98 443.84 329.8C444.61 330.62 445.67 331.1 446.8 331.15Z" fill="#03183F" fill-opacity="1.000000" fill-rule="nonzero"/>
		<path id="Vector" d="M437.63 118.7C437.63 125.31 432.29 130.67 425.7 130.67C419.1 130.67 413.76 125.31 413.76 118.7C413.76 112.08 419.1 106.72 425.7 106.72C432.29 106.72 437.63 112.08 437.63 118.7Z" fill="#FFB8B8" fill-opacity="1.000000" fill-rule="evenodd"/>
		<path id="Vector" d="M444.34 216.02L440.4 223.71C440.05 224.39 439.85 225.14 439.81 225.9C439.77 226.66 439.89 227.42 440.16 228.14C440.44 228.85 440.86 229.49 441.4 230.03C441.94 230.57 442.59 230.98 443.3 231.25C444.05 231.54 444.86 231.65 445.66 231.58C446.47 231.51 447.24 231.26 447.93 230.85C448.63 230.43 449.22 229.87 449.67 229.2C450.12 228.53 450.41 227.77 450.53 226.97L452.17 215.64L458.14 187.2L457.77 172.97L445.83 172.97C449.9 183.55 447.88 199.16 444.34 216.02Z" fill="#FFB8B8" fill-opacity="1.000000" fill-rule="nonzero"/>
		<path id="Vector" d="M443.97 174.47L460 174.47L457.68 156.82C457.36 154.42 456.45 152.15 455.04 150.2C453.62 148.25 451.74 146.68 449.56 145.65L443.97 174.47Z" fill="#9C0332" fill-opacity="1.000000" fill-rule="nonzero"/>
		<path id="Vector" d="M438.38 112.1C438.62 110.5 438.52 108.87 438.09 107.31C437.66 105.75 436.9 104.3 435.87 103.05C433.84 100.64 430.43 98.66 424.76 99.59C412.41 101.63 408.85 111.95 410.06 114.55C411.27 117.14 414.98 123.16 414.98 123.16C414.98 123.16 412.26 117.2 415.21 115.99C418.17 114.78 429.6 110 433.59 112.15C434.72 112.72 435.68 113.58 436.37 114.64C437.06 115.71 437.46 116.93 437.53 118.2L438.38 112.1Z" fill="#03183F" fill-opacity="1.000000" fill-rule="nonzero"/>
		<path id="Vector" d="M234.13 62.25L229.34 64.69C223.81 53.77 216.49 43.86 207.68 35.38C164.42 -6.36 95.39 -4.99 53.81 38.43C12.22 81.84 13.58 151.13 56.84 192.87C65.07 200.83 74.5 207.44 84.79 212.45L82.44 217.31C66.14 209.37 51.96 197.64 41.06 183.11C30.17 168.58 22.88 151.65 19.79 133.73C16.7 115.8 17.91 97.4 23.3 80.04C28.7 62.68 38.14 46.85 50.84 33.88C63.53 20.9 79.12 11.14 96.32 5.41C113.51 -0.33 131.82 -1.87 149.73 0.9C167.64 3.67 184.64 10.68 199.31 21.35C213.99 32.02 225.92 46.04 234.13 62.25Z" fill="#E6E6E6" fill-opacity="1.000000" fill-rule="nonzero"/>
		<path id="Vector" d="M71.81 162.72C64.76 170.08 60.9 179.97 61.1 190.18C61.3 200.4 65.54 210.12 72.88 217.21C80.22 224.29 90.07 228.16 100.25 227.96C110.43 227.75 120.11 223.5 127.17 216.13L133.78 209.23L78.42 155.82L71.81 162.72Z" fill="#E6E6E6" fill-opacity="1.000000" fill-rule="nonzero"/>
		<path id="Vector" d="M74.71 151.89C73.14 153.54 72.29 155.74 72.33 158.02C72.37 160.3 73.32 162.46 74.95 164.04L125.73 213.04C127.36 214.62 129.56 215.48 131.83 215.43C134.1 215.39 136.25 214.44 137.83 212.8C139.4 211.16 140.26 208.95 140.22 206.67C140.17 204.4 139.23 202.23 137.59 200.65L86.82 151.66C85.18 150.08 82.98 149.22 80.72 149.26C78.45 149.31 76.29 150.25 74.71 151.89Z" fill="#03183F" fill-opacity="1.000000" fill-rule="nonzero"/>
		<path id="Vector" d="M227 111.91L233.61 105.01C240.66 97.64 244.52 87.76 244.32 77.54C244.11 67.32 239.88 57.6 232.54 50.52C228.9 47.01 224.61 44.25 219.92 42.41C215.22 40.57 210.21 39.67 205.17 39.77C194.99 39.97 185.31 44.22 178.25 51.59L171.64 58.49L227 111.91Z" fill="#E6E6E6" fill-opacity="1.000000" fill-rule="nonzero"/>
		<path id="Vector" d="M167.59 54.92C166.02 56.57 165.16 58.77 165.21 61.05C165.25 63.33 166.2 65.49 167.83 67.07L218.6 116.07C220.24 117.64 222.43 118.5 224.7 118.46C226.97 118.41 229.13 117.46 230.7 115.82C232.27 114.18 233.13 111.98 233.09 109.7C233.04 107.43 232.1 105.26 230.47 103.68L179.69 54.69C178.06 53.11 175.86 52.25 173.59 52.29C171.32 52.34 169.17 53.28 167.59 54.92Z" fill="#03183F" fill-opacity="1.000000" fill-rule="nonzero"/>
		<path id="Vector" d="M189.01 168.15L189.01 164.17C189.01 164.17 206.32 154.4 220.38 164.17L220.38 167.79L189.01 168.15Z" fill="#03183F" fill-opacity="1.000000" fill-rule="nonzero"/>
		<path id="Vector" d="M346.56 168.15L346.56 164.17C346.56 164.17 363.87 154.4 377.93 164.17L377.93 167.79L346.56 168.15Z" fill="#03183F" fill-opacity="1.000000" fill-rule="nonzero"/>
		<path id="Vector" d="M240.93 167.79L223.98 167.79C223.98 167.79 219.66 162.72 205.23 163.08C190.81 163.44 187.93 167.79 187.93 167.79C187.93 167.79 173.69 177.38 170.44 189.32C170.44 189.32 152.96 241.97 152.6 283.23C152.24 324.48 168.1 330.27 176.39 331.36C184.68 332.44 199.47 331 213.89 294.45L220.02 273.09C220.02 273.09 221.1 260.43 234.08 268.39C247.06 276.35 258.59 264.05 258.59 264.05L307.27 264.05C307.27 264.05 323.49 274.18 338.27 266.22C338.27 266.22 344.04 258.62 349.45 284.31C349.45 284.31 366.03 337.15 391.63 331.72C417.23 326.29 414.35 282.14 414.35 282.14C414.35 282.14 410.92 214.65 396.86 190.77C396.86 190.77 383.34 165.98 374.33 164.89C374.33 164.89 354.86 161.27 347.29 164.53L342.96 168.15L240.93 167.79Z" fill="#E6E6E6" fill-opacity="1.000000" fill-rule="nonzero"/>
		<path id="Vector" d="M233 203.25C233 220.64 218.95 234.74 201.63 234.74C184.31 234.74 170.26 220.64 170.26 203.25C170.26 185.86 184.31 171.77 201.63 171.77C218.95 171.77 233 185.86 233 203.25Z" fill="#03183F" fill-opacity="1.000000" fill-rule="evenodd"/>
		<path id="Vector" d="M396.68 203.25C396.68 220.64 382.64 234.74 365.31 234.74C347.99 234.74 333.95 220.64 333.95 203.25C333.95 185.86 347.99 171.77 365.31 171.77C382.64 171.77 396.68 185.86 396.68 203.25Z" fill="#03183F" fill-opacity="1.000000" fill-rule="evenodd"/>
		<path id="Vector" d="M207.09 196.23L202.91 199.94C202.56 200.26 202.1 200.43 201.63 200.43C201.16 200.43 200.7 200.26 200.35 199.94L196.16 196.23C195.95 196.05 195.79 195.83 195.68 195.58C195.56 195.33 195.5 195.06 195.5 194.78L195.5 184.57C195.5 184.05 195.71 183.56 196.07 183.19C196.44 182.83 196.93 182.62 197.44 182.62L205.83 182.62C206.34 182.62 206.83 182.83 207.2 183.19C207.56 183.55 207.76 184.05 207.77 184.56L207.77 194.78C207.76 195.05 207.7 195.33 207.59 195.58C207.47 195.83 207.3 196.05 207.09 196.23Z" fill="#E6E6E6" fill-opacity="1.000000" fill-rule="nonzero"/>
		<path id="Vector" d="M207.09 210.27L202.91 206.56C202.56 206.25 202.1 206.07 201.63 206.07C201.16 206.07 200.7 206.25 200.35 206.56L196.16 210.27C195.95 210.45 195.79 210.68 195.68 210.93C195.56 211.17 195.5 211.45 195.5 211.72L195.5 221.92C195.5 222.44 195.71 222.93 196.07 223.3C196.43 223.66 196.92 223.87 197.44 223.87L205.83 223.87C206.34 223.87 206.83 223.67 207.2 223.3C207.56 222.94 207.76 222.45 207.77 221.93L207.77 211.72C207.76 211.45 207.7 211.17 207.59 210.92C207.47 210.67 207.3 210.45 207.09 210.27Z" fill="#E6E6E6" fill-opacity="1.000000" fill-rule="nonzero"/>
		<path id="Vector" d="M194.64 208.74L198.34 204.54C198.65 204.18 198.82 203.73 198.82 203.25C198.82 202.78 198.65 202.32 198.34 201.97L194.64 197.76C194.46 197.56 194.24 197.39 193.99 197.28C193.74 197.16 193.47 197.1 193.2 197.1L183.03 197.1C182.51 197.1 182.02 197.31 181.66 197.67C181.3 198.04 181.09 198.53 181.09 199.05L181.09 207.46C181.09 207.98 181.29 208.47 181.66 208.84C182.02 209.2 182.51 209.41 183.02 209.41L193.2 209.41C193.47 209.41 193.74 209.35 193.99 209.23C194.24 209.12 194.46 208.95 194.64 208.74Z" fill="#E6E6E6" fill-opacity="1.000000" fill-rule="nonzero"/>
		<path id="Vector" d="M208.62 208.74L204.93 204.54C204.62 204.18 204.45 203.72 204.45 203.25C204.45 202.78 204.62 202.32 204.93 201.96L208.63 197.76C208.81 197.55 209.03 197.39 209.28 197.27C209.53 197.16 209.8 197.1 210.07 197.1L220.24 197.1C220.75 197.1 221.25 197.3 221.61 197.67C221.97 198.03 222.18 198.52 222.18 199.04L222.18 207.46C222.18 207.98 221.98 208.47 221.61 208.84C221.25 209.2 220.76 209.41 220.25 209.41L210.08 209.41C209.8 209.41 209.53 209.35 209.28 209.23C209.03 209.12 208.8 208.95 208.62 208.74Z" fill="#E6E6E6" fill-opacity="1.000000" fill-rule="nonzero"/>
		<path id="Vector" d="M266.89 237.63C266.89 250.22 256.72 260.43 244.17 260.43C231.63 260.43 221.46 250.22 221.46 237.63C221.46 225.04 231.63 214.83 244.17 214.83C256.72 214.83 266.89 225.04 266.89 237.63Z" fill="#03183F" fill-opacity="1.000000" fill-rule="evenodd"/>
		<path id="Vector" d="M345.48 237.63C345.48 250.22 335.31 260.43 322.77 260.43C310.22 260.43 300.06 250.22 300.06 237.63C300.06 225.04 310.22 214.83 322.77 214.83C335.31 214.83 345.48 225.04 345.48 237.63Z" fill="#03183F" fill-opacity="1.000000" fill-rule="evenodd"/>
		<path id="Vector" d="M259.31 237.63C259.31 246.02 252.54 252.83 244.17 252.83C235.81 252.83 229.03 246.02 229.03 237.63C229.03 229.24 235.81 222.43 244.17 222.43C252.54 222.43 259.31 229.24 259.31 237.63Z" fill="#E6E6E6" fill-opacity="1.000000" fill-rule="evenodd"/>
		<path id="Vector" d="M244.17 248.12C242.1 248.12 240.08 247.51 238.36 246.36C236.64 245.2 235.3 243.56 234.51 241.65C233.72 239.73 233.51 237.62 233.92 235.58C234.32 233.55 235.32 231.68 236.78 230.21C238.24 228.74 240.1 227.74 242.13 227.34C244.16 226.93 246.26 227.14 248.17 227.93C250.08 228.73 251.72 230.07 252.87 231.8C254.01 233.53 254.63 235.55 254.63 237.63C254.62 240.41 253.52 243.08 251.56 245.05C249.6 247.01 246.94 248.12 244.17 248.12ZM244.17 227.86C242.25 227.86 240.36 228.43 238.76 229.51C237.16 230.58 235.92 232.11 235.18 233.89C234.44 235.68 234.25 237.64 234.62 239.54C235 241.43 235.93 243.17 237.29 244.54C238.65 245.91 240.38 246.84 242.27 247.21C244.16 247.59 246.12 247.4 247.9 246.66C249.68 245.92 251.2 244.67 252.27 243.06C253.34 241.45 253.91 239.56 253.91 237.63C253.9 235.04 252.88 232.56 251.05 230.72C249.23 228.89 246.75 227.86 244.17 227.86Z" fill="#03183F" fill-opacity="1.000000" fill-rule="nonzero"/>
		<path id="Vector" d="M337.91 237.63C337.91 246.02 331.13 252.83 322.77 252.83C314.41 252.83 307.63 246.02 307.63 237.63C307.63 229.24 314.41 222.43 322.77 222.43C331.13 222.43 337.91 229.24 337.91 237.63Z" fill="#E6E6E6" fill-opacity="1.000000" fill-rule="evenodd"/>
		<path id="Vector" d="M322.77 248.12C320.7 248.12 318.68 247.51 316.96 246.36C315.24 245.2 313.9 243.56 313.11 241.65C312.32 239.73 312.11 237.62 312.51 235.58C312.92 233.55 313.91 231.68 315.38 230.21C316.84 228.74 318.7 227.74 320.73 227.34C322.76 226.93 324.86 227.14 326.77 227.93C328.68 228.73 330.31 230.07 331.46 231.8C332.61 233.53 333.22 235.55 333.22 237.63C333.22 240.41 332.12 243.08 330.16 245.05C328.2 247.01 325.54 248.12 322.77 248.12ZM322.77 227.86C320.84 227.86 318.96 228.43 317.36 229.51C315.76 230.58 314.51 232.11 313.78 233.89C313.04 235.68 312.85 237.64 313.22 239.54C313.6 241.43 314.52 243.17 315.89 244.54C317.25 245.91 318.98 246.84 320.87 247.21C322.76 247.59 324.72 247.4 326.49 246.66C328.27 245.92 329.79 244.67 330.86 243.06C331.93 241.45 332.5 239.56 332.5 237.63C332.5 235.04 331.47 232.56 329.65 230.72C327.82 228.89 325.35 227.86 322.77 227.86Z" fill="#03183F" fill-opacity="1.000000" fill-rule="nonzero"/>
		<path id="Vector" d="M290.68 240.16C290.68 243.76 287.78 246.68 284.19 246.68C280.61 246.68 277.7 243.76 277.7 240.16C277.7 236.57 280.61 233.65 284.19 233.65C287.78 233.65 290.68 236.57 290.68 240.16Z" fill="#03183F" fill-opacity="1.000000" fill-rule="evenodd"/>
		<path id="Vector" d="M275.69 218.42C275.69 219.21 275.06 219.84 274.27 219.84C273.49 219.84 272.86 219.21 272.86 218.42C272.86 217.64 273.49 217 274.27 217C275.06 217 275.69 217.64 275.69 218.42Z" fill="#03183F" fill-opacity="1.000000" fill-rule="evenodd"/>
		<path id="Vector" d="M281 218.42C281 219.21 280.36 219.84 279.58 219.84C278.8 219.84 278.16 219.21 278.16 218.42C278.16 217.64 278.8 217 279.58 217C280.36 217 281 217.64 281 218.42Z" fill="#03183F" fill-opacity="1.000000" fill-rule="evenodd"/>
		<path id="Vector" d="M280.29 225.17C280.29 225.96 279.66 226.59 278.87 226.59C278.09 226.59 277.46 225.96 277.46 225.17C277.46 224.39 278.09 223.75 278.87 223.75C279.66 223.75 280.29 224.39 280.29 225.17Z" fill="#03183F" fill-opacity="1.000000" fill-rule="evenodd"/>
		<path id="Vector" d="M285.27 225.33C285.27 226.13 284.63 226.77 283.83 226.77C283.03 226.77 282.39 226.13 282.39 225.33C282.39 224.53 283.03 223.88 283.83 223.88C284.63 223.88 285.27 224.53 285.27 225.33Z" fill="#03183F" fill-opacity="1.000000" fill-rule="evenodd"/>
		<path id="Vector" d="M290.2 225.17C290.2 225.96 289.56 226.59 288.78 226.59C288 226.59 287.36 225.96 287.36 225.17C287.36 224.39 288 223.75 288.78 223.75C289.56 223.75 290.2 224.39 290.2 225.17Z" fill="#03183F" fill-opacity="1.000000" fill-rule="evenodd"/>
		<path id="Vector" d="M278.17 221.98C278.17 222.76 277.53 223.4 276.75 223.4C275.97 223.4 275.33 222.76 275.33 221.98C275.33 221.19 275.97 220.55 276.75 220.55C277.53 220.55 278.17 221.19 278.17 221.98Z" fill="#03183F" fill-opacity="1.000000" fill-rule="evenodd"/>
		<path id="Vector" d="M282.75 222.07C282.75 222.87 282.1 223.52 281.31 223.52C280.51 223.52 279.87 222.87 279.87 222.07C279.87 221.27 280.51 220.62 281.31 220.62C282.1 220.62 282.75 221.27 282.75 222.07Z" fill="#03183F" fill-opacity="1.000000" fill-rule="evenodd"/>
		<path id="Vector" d="M287.44 222.07C287.44 222.87 286.79 223.52 285.99 223.52C285.2 223.52 284.55 222.87 284.55 222.07C284.55 221.27 285.2 220.62 285.99 220.62C286.79 220.62 287.44 221.27 287.44 222.07Z" fill="#03183F" fill-opacity="1.000000" fill-rule="evenodd"/>
		<path id="Vector" d="M292.32 221.98C292.32 222.76 291.69 223.4 290.9 223.4C290.12 223.4 289.49 222.76 289.49 221.98C289.49 221.19 290.12 220.55 290.9 220.55C291.69 220.55 292.32 221.19 292.32 221.98Z" fill="#03183F" fill-opacity="1.000000" fill-rule="evenodd"/>
		<path id="Vector" d="M285.27 218.45C285.27 219.25 284.63 219.9 283.83 219.9C283.03 219.9 282.39 219.25 282.39 218.45C282.39 217.65 283.03 217 283.83 217C284.63 217 285.27 217.65 285.27 218.45Z" fill="#03183F" fill-opacity="1.000000" fill-rule="evenodd"/>
		<path id="Vector" d="M290.32 218.45C290.32 219.25 289.68 219.9 288.88 219.9C288.08 219.9 287.44 219.25 287.44 218.45C287.44 217.65 288.08 217 288.88 217C289.68 217 290.32 217.65 290.32 218.45Z" fill="#03183F" fill-opacity="1.000000" fill-rule="evenodd"/>
		<path id="Vector" d="M294.45 218.42C294.45 219.21 293.81 219.84 293.03 219.84C292.25 219.84 291.61 219.21 291.61 218.42C291.61 217.64 292.25 217 293.03 217C293.81 217 294.45 217.64 294.45 218.42Z" fill="#03183F" fill-opacity="1.000000" fill-rule="evenodd"/>
		<path id="Vector" d="M230.29 170.87C229.62 170.87 228.99 171.14 228.51 171.61C228.04 172.08 227.78 172.73 227.78 173.4L227.78 181C227.78 181.67 228.04 182.31 228.51 182.78C228.99 183.25 229.62 183.52 230.29 183.52L232.09 183.52C232.76 183.52 233.4 183.25 233.87 182.78C234.34 182.31 234.61 181.67 234.61 181L234.61 173.4C234.61 172.73 234.34 172.08 233.87 171.61C233.4 171.14 232.76 170.87 232.09 170.87L230.29 170.87Z" fill="#03183F" fill-opacity="1.000000" fill-rule="nonzero"/>
		<path id="Vector" d="M335.57 170.87C334.9 170.87 334.26 171.14 333.79 171.61C333.32 172.08 333.05 172.73 333.05 173.4L333.05 181C333.05 181.67 333.32 182.31 333.79 182.78C334.26 183.25 334.9 183.52 335.57 183.52L337.37 183.52C338.04 183.52 338.68 183.25 339.15 182.78C339.62 182.31 339.89 181.67 339.89 181L339.89 173.4C339.89 172.73 339.62 172.08 339.15 171.61C338.68 171.14 338.04 170.87 337.37 170.87L335.57 170.87Z" fill="#03183F" fill-opacity="1.000000" fill-rule="nonzero"/>
		<path id="Vector" d="M374.33 184.07C374.33 188.87 370.45 192.76 365.67 192.76C360.89 192.76 357.02 188.87 357.02 184.07C357.02 179.27 360.89 175.39 365.67 175.39C370.45 175.39 374.33 179.27 374.33 184.07Z" fill="#E6E6E6" fill-opacity="1.000000" fill-rule="evenodd"/>
		<path id="Vector" d="M355.94 202.53C355.94 207.32 352.06 211.21 347.29 211.21C342.51 211.21 338.63 207.32 338.63 202.53C338.63 197.73 342.51 193.84 347.29 193.84C352.06 193.84 355.94 197.73 355.94 202.53Z" fill="#E6E6E6" fill-opacity="1.000000" fill-rule="evenodd"/>
		<path id="Vector" d="M393.43 201.44C393.43 206.24 389.56 210.13 384.78 210.13C380 210.13 376.13 206.24 376.13 201.44C376.13 196.65 380 192.76 384.78 192.76C389.56 192.76 393.43 196.65 393.43 201.44Z" fill="#E6E6E6" fill-opacity="1.000000" fill-rule="evenodd"/>
		<path id="Vector" d="M375.77 220.62C375.77 225.42 371.89 229.31 367.12 229.31C362.34 229.31 358.46 225.42 358.46 220.62C358.46 215.83 362.34 211.94 367.12 211.94C371.89 211.94 375.77 215.83 375.77 220.62Z" fill="#E6E6E6" fill-opacity="1.000000" fill-rule="evenodd"/>
		<path id="Vector" d="M246.61 165.8C244.67 165.81 242.82 166.58 241.45 167.95C240.08 169.32 239.32 171.18 239.31 173.12L239.31 205.51C239.32 207.45 240.08 209.31 241.45 210.69C242.82 212.06 244.67 212.83 246.61 212.83L320.7 212.83C322.63 212.83 324.48 212.06 325.85 210.69C327.22 209.31 327.99 207.45 327.99 205.51L327.99 173.12C327.99 171.18 327.22 169.32 325.85 167.95C324.48 166.58 322.63 165.81 320.7 165.8L246.61 165.8Z" fill="#03183F" fill-opacity="1.000000" fill-rule="nonzero"/>
		<path id="Vector" d="M371.55 188.05L359.82 188.05L365.48 178.31L371.55 188.05ZM361.07 187.33L370.25 187.33L365.5 179.71L361.07 187.33Z" fill="#03183F" fill-opacity="1.000000" fill-rule="nonzero"/>
		<path id="Vector" d="M352.15 206.87L342.42 206.87L342.42 198.19L352.15 198.19L352.15 206.87ZM343.14 206.15L351.43 206.15L351.43 198.91L343.14 198.91L343.14 206.15Z" fill="#03183F" fill-opacity="1.000000" fill-rule="nonzero"/>
		<path id="Vector" d="M384.78 206.87C383.71 206.87 382.67 206.55 381.78 205.96C380.89 205.36 380.19 204.51 379.79 203.52C379.38 202.53 379.27 201.44 379.48 200.38C379.69 199.33 380.2 198.36 380.96 197.6C381.71 196.84 382.68 196.33 383.73 196.12C384.78 195.91 385.86 196.02 386.85 196.43C387.84 196.84 388.68 197.53 389.28 198.43C389.87 199.32 390.19 200.37 390.19 201.44C390.19 202.88 389.62 204.26 388.6 205.28C387.59 206.3 386.22 206.87 384.78 206.87ZM384.78 196.74C383.85 196.74 382.95 197.01 382.18 197.53C381.41 198.05 380.81 198.78 380.45 199.64C380.1 200.5 380 201.45 380.18 202.36C380.37 203.27 380.81 204.11 381.47 204.77C382.12 205.43 382.96 205.87 383.87 206.06C384.78 206.24 385.72 206.14 386.58 205.79C387.43 205.43 388.16 204.83 388.68 204.06C389.19 203.28 389.47 202.37 389.47 201.44C389.47 200.19 388.97 199 388.09 198.12C387.22 197.24 386.02 196.74 384.78 196.74Z" fill="#03183F" fill-opacity="1.000000" fill-rule="nonzero"/>
		<path id="Vector" d="M362.71 216.81L363.22 216.29L371.34 224.44L370.83 224.95L362.71 216.81Z" fill="#03183F" fill-opacity="1.000000" fill-rule="evenodd"/>
		<path id="Vector" d="M362.72 224.25L371.01 216.29L371.51 216.81L363.22 224.77L362.72 224.25Z" fill="#03183F" fill-opacity="1.000000" fill-rule="evenodd"/>
		<path id="Vector" d="M76.63 83.11C56.95 88.56 35.39 92.66 27.67 86.3C31.9 79.23 34.34 72.27 34.54 65.43C34.59 62.3 35.85 59.31 38.06 57.1C39.52 55.69 41.29 54.62 43.22 53.99C45.16 53.36 47.21 53.18 49.22 53.46L54.33 54.18C54.5 54.21 54.67 54.23 54.85 54.27C57.3 54.73 59.54 55.96 61.27 57.77C62.99 59.58 64.1 61.89 64.45 64.37C65.53 71.79 69.15 78.21 76.63 83.11Z" fill="#03183F" fill-opacity="1.000000" fill-rule="nonzero"/>
		<path id="Vector" d="M95.62 153.46L103.28 155.05C103.86 155.17 104.41 155.42 104.89 155.78C105.36 156.14 105.75 156.6 106.03 157.13C106.3 157.66 106.46 158.25 106.48 158.85C106.5 159.45 106.39 160.04 106.15 160.59C105.93 161.13 105.59 161.6 105.16 161.99C104.73 162.38 104.22 162.67 103.68 162.84C103.13 163.02 102.54 163.07 101.97 163C101.4 162.93 100.85 162.74 100.36 162.43L88.65 155.21L68.77 108.29L79.07 105.3L95.62 153.46Z" fill="#A0616A" fill-opacity="1.000000" fill-rule="nonzero"/>
		<path id="Vector" d="M41.11 215.03L35.31 216.72L30.92 207.62L35.38 205.29L41.11 215.03Z" fill="#A0616A" fill-opacity="1.000000" fill-rule="nonzero"/>
		<path id="Vector" d="M38.16 253.98L31.05 252.09L32.16 239.83L38.28 240.21L38.16 253.98Z" fill="#A0616A" fill-opacity="1.000000" fill-rule="nonzero"/>
		<path id="Vector" d="M38.9 206.53L31.37 211.5L2.41 178.62C1.78 177.91 1.32 177.06 1.05 176.15C0.79 175.23 0.72 174.27 0.87 173.33C1.01 172.39 1.36 171.5 1.89 170.71C2.42 169.92 3.12 169.25 3.94 168.77L40.01 147.13L45.54 163.06L26.75 180.76L38.9 206.53Z" fill="#03183F" fill-opacity="1.000000" fill-rule="nonzero"/>
		<path id="Vector" d="M45.24 223.74C45.22 223.76 45.21 223.79 45.19 223.81C44.71 226.64 43.86 229.22 41.97 231.09C41.41 232.35 40.41 233.37 39.15 233.94C37.89 234.51 36.47 234.6 35.15 234.18C33.91 233.79 32.84 232.97 32.13 231.88C31.42 230.78 31.11 229.47 31.26 228.18L32.66 215.55C36.04 214.77 38.61 212.85 39.92 209.1L43.2 211.34C44.17 212 44.99 212.85 45.63 213.84C46.26 214.83 46.68 215.94 46.88 217.1C47.07 218.26 47.02 219.44 46.74 220.59C46.46 221.73 45.95 222.8 45.24 223.74Z" fill="#03183F" fill-opacity="1.000000" fill-rule="nonzero"/>
		<path id="Vector" d="M60.4 68.77C60.4 75.2 55.21 80.41 48.81 80.41C42.41 80.41 37.22 75.2 37.22 68.77C37.22 62.35 42.41 57.14 48.81 57.14C55.21 57.14 60.4 62.35 60.4 68.77Z" fill="#A0616A" fill-opacity="1.000000" fill-rule="evenodd"/>
		<path id="Vector" d="M58.85 87.37L40.58 102.56L39.16 96.31L42.35 91.43C43.23 86.64 42.66 81.36 41.14 75.76L53.06 75.77C53.57 80.3 55.33 84.25 58.85 87.37Z" fill="#A0616A" fill-opacity="1.000000" fill-rule="nonzero"/>
		<path id="Vector" d="M63.99 127.21L39.33 134.75L37.41 125.95C32.79 119.72 30.78 114.03 33.8 109.39L32.28 102.41C36.64 98.96 40.08 95.43 41.96 91.77L57.14 85.82L68.3 86.5L71.59 97.59L63.99 127.21Z" fill="#9C0332" fill-opacity="1.000000" fill-rule="nonzero"/>
		<path id="Vector" d="M81.52 106.54C76.26 106.48 71.12 108.07 66.79 111.07L68.3 86.5C69.83 86.71 71.27 87.31 72.5 88.25C73.73 89.19 74.69 90.43 75.29 91.85L81.52 106.54Z" fill="#9C0332" fill-opacity="1.000000" fill-rule="nonzero"/>
		<path id="Vector" d="M38.83 243.14L31 241.21L32.15 174.44L42.66 162.88L40.31 148.23L38.79 131.82L64.47 125.43C73.15 141.25 78.39 155.63 70.73 164.62L38.83 243.14Z" fill="#03183F" fill-opacity="1.000000" fill-rule="nonzero"/>
		<path id="Vector" d="M37.03 265.69C36.99 265.7 36.96 265.72 36.92 265.73C34.65 268.38 32.15 270.54 29.01 271.3C27.63 272.27 25.95 272.7 24.28 272.5C22.61 272.3 21.07 271.49 19.95 270.23C18.9 269.03 18.3 267.51 18.24 265.92C18.18 264.33 18.68 262.76 19.64 261.5L29.02 249.21C33.03 250.52 36.92 250.14 40.63 247.04L42.65 251.45C43.25 252.75 43.58 254.16 43.63 255.6C43.67 257.03 43.42 258.45 42.89 259.79C42.36 261.12 41.57 262.33 40.56 263.34C39.56 264.36 38.35 265.16 37.03 265.69Z" fill="#03183F" fill-opacity="1.000000" fill-rule="nonzero"/>
		<path id="Vector" d="M8.43 161.49L1.55 167.4C0.98 167.89 0.55 168.52 0.28 169.22C0.02 169.93 -0.07 170.69 0.04 171.43C0.15 172.18 0.44 172.89 0.89 173.49C1.34 174.09 1.94 174.57 2.62 174.88C3.65 175.35 4.82 175.4 5.89 175.04C6.96 174.67 7.85 173.91 8.39 172.91L13.35 163.61L36.14 121.87L27.57 120.25L8.43 161.49Z" fill="#A0616A" fill-opacity="1.000000" fill-rule="nonzero"/>
		<path id="Vector" d="M37.52 123.04C33.07 121.69 28.9 120.9 25.66 121.95C26.34 113.53 27.74 106.01 32.28 102.41L38.74 103.17L37.52 123.04Z" fill="#9C0332" fill-opacity="1.000000" fill-rule="nonzero"/>
		<path id="Vector" d="M61.75 66.08L36.96 64.55L37.27 59.57C45.92 53.71 54.18 54.22 62.06 61.1L61.75 66.08Z" fill="#03183F" fill-opacity="1.000000" fill-rule="nonzero"/>
	</g>
</svg>
