<svg width="481.000000" height="322.000000" viewBox="0 0 481 322" fill="none" xmlns="http://www.w3.org/2000/svg" xmlns:xlink="http://www.w3.org/1999/xlink">
	<desc>
			Created with Pixso.
	</desc>
	<defs>
		<clipPath id="clip1058_448">
			<rect id="undraw_gaming_re_cma2 1" width="481.000000" height="322.000000" fill="white" fill-opacity="0"/>
		</clipPath>
	</defs>
	<rect id="undraw_gaming_re_cma2 1" width="481.000000" height="322.000000" fill="#FFFFFF" fill-opacity="0"/>
	<g clip-path="url(#clip1058_448)">
		<path id="Vector" d="M468.71 311.02L463.96 313.05L453.89 295.65L460.9 292.65L468.71 311.02Z" fill="#FFB6B6" fill-opacity="1.000000" fill-rule="nonzero"/>
		<path id="Vector" d="M429.46 315.53L424.29 315.53L421.84 295.56L429.46 295.56L429.46 315.53Z" fill="#FFB6B6" fill-opacity="1.000000" fill-rule="nonzero"/>
		<path id="Vector" d="M429.64 320.93L413.76 320.93L413.76 320.73C413.76 319.09 414.41 317.51 415.57 316.35C416.73 315.19 418.3 314.53 419.94 314.53L419.94 314.53L422.84 312.33L428.25 314.53L429.64 314.53L429.64 320.93Z" fill="#03183F" fill-opacity="1.000000" fill-rule="nonzero"/>
		<path id="Vector" d="M471.6 314.48L456.99 320.72L456.91 320.54C456.27 319.03 456.25 317.32 456.87 315.79C457.48 314.27 458.67 313.05 460.18 312.41L460.18 312.41L461.98 309.24L467.82 309.14L469.1 308.59L471.6 314.48Z" fill="#03183F" fill-opacity="1.000000" fill-rule="nonzero"/>
		<path id="Vector" d="M424.39 197.34L416.55 245.25L418.68 252.39L415.88 257.45L419.99 301.86L418.32 305.54L422.99 308.43L432.49 308.43L432.99 268.23L435.34 262.32L435.34 259.07L440.11 234.55L440.99 262.6L442.38 268.51L441.22 272.72L442.74 275.67L455.81 303.8L466.46 303.8L465.63 297.44C467.54 296.47 462.77 293.64 462.31 291.55L463.88 288.01L462.31 281.32L460.87 268.27L462.39 240.7L461.68 203.58C458.1 198.78 454.13 195.07 449.22 194.03L424.39 197.34Z" fill="#03183F" fill-opacity="1.000000" fill-rule="nonzero"/>
		<path id="ab6171fa-7d69-4734-b81c-8dff60f9761b" d="M454.27 123.44C454.27 129.4 449.45 134.24 443.5 134.24C437.56 134.24 432.74 129.4 432.74 123.44C432.74 117.48 437.56 112.65 443.5 112.65C449.45 112.65 454.27 117.48 454.27 123.44Z" fill="#FFB6B6" fill-opacity="1.000000" fill-rule="evenodd"/>
		<path id="Vector" d="M399.13 208.66C398.99 208.05 399 207.42 399.13 206.82C399.26 206.21 399.53 205.64 399.91 205.15C400.28 204.66 400.76 204.25 401.31 203.97C401.86 203.68 402.47 203.52 403.09 203.49L407.42 189.04L412.43 195.06L407.55 207.86C407.52 208.91 407.12 209.91 406.41 210.67C405.69 211.44 404.73 211.91 403.69 212.01C402.65 212.11 401.62 211.82 400.77 211.2C399.93 210.58 399.35 209.68 399.13 208.66Z" fill="#FFB6B6" fill-opacity="1.000000" fill-rule="nonzero"/>
		<path id="f348f81f-b961-4ae4-bc6b-758f6acfb12a" d="M427.25 149.25L425.31 145.69L422.81 146.53C422.81 146.53 420.04 148.32 416.17 155.07C414.38 158.19 410.51 178.22 410.51 178.22L401.47 202.23L410.69 203.8L418.38 184.01L427.3 165.07L427.25 149.25Z" fill="#9C0332" fill-opacity="1.000000" fill-rule="nonzero"/>
		<path id="Vector" d="M443.1 197.18C450.68 197.18 458.33 198.68 461.46 204.03C461.38 202.87 461.17 200.85 460.96 199L460.18 194.03L460.97 189.47L462.02 188.42L460.14 186.53L461.42 177.02L465.65 154.61C465.98 152.84 465.73 151.02 464.92 149.42C464.11 147.82 462.79 146.53 461.18 145.76L457.11 143.8L450.52 137.67L438.6 137.58L434.71 142.65L424.48 146.13L426.19 181.78L425.07 184.42C425.32 184.65 425.85 185.15 426.14 185.47C426.55 185.92 426.03 188.25 425.68 189.6L425.21 193.19L426.71 194.27L424.76 196.57L424.37 199.5C426.3 199.04 434.66 197.18 443.1 197.18Z" fill="#9C0332" fill-opacity="1.000000" fill-rule="nonzero"/>
		<path id="Vector" d="M446.26 133.71C446.3 133.61 446.35 133.5 446.39 133.4C446.38 133.4 446.36 133.4 446.34 133.41L446.26 133.71Z" fill="#03183F" fill-opacity="1.000000" fill-rule="nonzero"/>
		<path id="Vector" d="M454.57 113.14C454.05 112.66 453.39 112.37 452.69 112.33C451.99 112.35 451.29 112.98 451.43 113.66C450.15 111.4 448.12 109.65 445.68 108.73C443.25 107.82 440.57 107.79 438.12 108.66C436.39 109.27 434.7 110.5 434.3 112.29C434.26 112.76 434.12 113.22 433.89 113.63C433.69 113.85 433.42 114.01 433.14 114.08C432.85 114.16 432.54 114.14 432.26 114.05L432.25 114.04C432.15 114.01 432.05 114 431.95 114.03C431.85 114.06 431.76 114.11 431.69 114.19C431.63 114.27 431.59 114.36 431.58 114.47C431.56 114.57 431.58 114.67 431.63 114.76L432.12 115.68C431.5 115.81 430.86 115.8 430.25 115.64C430.15 115.61 430.04 115.61 429.95 115.65C429.85 115.69 429.76 115.75 429.7 115.84C429.64 115.93 429.61 116.03 429.61 116.14C429.62 116.24 429.65 116.34 429.71 116.43C430.53 117.54 431.59 118.45 432.81 119.09C434.04 119.72 435.4 120.05 436.77 120.07C438.73 120.06 440.7 119.38 442.61 119.83C443.34 120.01 444.03 120.34 444.62 120.82C445.21 121.29 445.69 121.9 446.01 122.58C446.34 123.26 446.51 124.01 446.51 124.77C446.51 125.53 446.34 126.28 446.02 126.96C446.6 126.32 447.73 126.48 448.33 127.1C448.61 127.44 448.81 127.83 448.93 128.25C449.05 128.67 449.08 129.11 449.02 129.54C448.86 130.86 448.47 132.14 447.87 133.33C450.18 133.26 452.41 132.48 454.27 131.09C456.12 129.7 457.51 127.78 458.24 125.58C458.97 123.38 459.01 121.01 458.35 118.78C457.7 116.56 456.37 114.59 454.57 113.14L454.57 113.14Z" fill="#03183F" fill-opacity="1.000000" fill-rule="nonzero"/>
		<path id="Vector" d="M133.49 46.02C133.49 60.84 121.51 72.85 106.73 72.85C91.95 72.85 79.97 60.84 79.97 46.02C79.97 31.2 91.95 19.19 106.73 19.19C121.51 19.19 133.49 31.2 133.49 46.02Z" fill="#9C0332" fill-opacity="1.000000" fill-rule="evenodd"/>
		<path id="Vector" d="M31.53 125.83C18.1 96.05 18.59 58.31 39.43 33.18C46.4 68.02 65.44 99.27 93.18 121.4C103.91 129.89 116.72 138.22 119.65 151.61C121.47 159.94 118.89 168.75 114.42 176C109.95 183.26 103.72 189.23 97.56 195.11L96.87 197.12C70.08 178.52 44.95 155.61 31.53 125.83Z" fill="#3A6569" fill-opacity="1.000000" fill-rule="nonzero"/>
		<path id="Vector" d="M40.01 33.54C35.22 59.87 38.78 87.91 50.43 112.03C52.95 117.25 55.96 122.32 59.99 126.51C64.02 130.71 68.84 133.35 74.38 134.98C79.45 136.46 84.81 137.39 89.43 140.08C94.3 142.92 97.32 147.68 98.5 153.14C99.94 159.83 98.9 166.63 97.65 173.25C96.26 180.6 94.71 188.21 96.72 195.59C96.96 196.49 95.56 196.82 95.32 195.92C91.82 183.07 98.62 170.4 97.67 157.48C97.22 151.45 94.97 145.51 89.81 142.02C85.3 138.97 79.78 138 74.64 136.55C69.23 135.02 64.38 132.68 60.26 128.8C56.03 124.83 52.82 119.87 50.18 114.74C44.22 103.17 40.29 90.43 38.21 77.6C35.82 62.86 35.97 47.81 38.64 33.12C38.8 32.21 40.18 32.64 40.01 33.54L40.01 33.54Z" fill="#FFFFFF" fill-opacity="1.000000" fill-rule="nonzero"/>
		<path id="Vector" d="M46.23 104.39C41.88 105.79 37.18 105.59 32.96 103.83C28.74 102.07 25.29 98.87 23.21 94.79C22.79 93.96 24.05 93.28 24.47 94.1C26.4 97.9 29.62 100.89 33.55 102.52C37.48 104.15 41.86 104.32 45.91 102.99C46.79 102.7 47.11 104.11 46.23 104.39L46.23 104.39Z" fill="#FFFFFF" fill-opacity="1.000000" fill-rule="nonzero"/>
		<path id="Vector" d="M71.72 134.56C76.06 126.28 77.13 116.65 74.72 107.61C74.48 106.71 75.88 106.39 76.12 107.28C78.61 116.7 77.48 126.71 72.94 135.32C72.5 136.14 71.28 135.38 71.72 134.56L71.72 134.56Z" fill="#FFFFFF" fill-opacity="1.000000" fill-rule="nonzero"/>
		<path id="Vector" d="M37.67 63.33C39.47 63.14 41.19 62.5 42.68 61.48C44.17 60.46 45.38 59.09 46.21 57.48C46.64 56.65 47.85 57.42 47.43 58.24C46.51 60.01 45.17 61.53 43.52 62.66C41.88 63.79 39.98 64.5 38 64.73C37.81 64.77 37.62 64.73 37.46 64.63C37.3 64.53 37.18 64.37 37.14 64.19C37.09 64.01 37.13 63.81 37.23 63.65C37.33 63.49 37.49 63.37 37.67 63.33Z" fill="#FFFFFF" fill-opacity="1.000000" fill-rule="nonzero"/>
		<path id="Vector" d="M149.78 33.47C149.53 33.99 149.28 34.52 149.04 35.05C145.72 42.1 142.98 49.41 140.84 56.91C140.67 57.48 140.5 58.07 140.34 58.65C135.39 76.76 133.83 95.64 135.75 114.33C136.52 121.76 137.85 129.13 139.73 136.36C142.34 146.35 145.95 156.97 145.14 166.94C145.06 167.98 144.92 169.02 144.72 170.04L99.38 197.81C99.24 197.82 99.11 197.85 98.98 197.86L97.22 199.05C97.09 198.68 96.97 198.3 96.85 197.94C96.78 197.72 96.72 197.51 96.64 197.29C96.6 197.15 96.55 197.01 96.51 196.88C96.49 196.83 96.48 196.78 96.47 196.75C96.42 196.62 96.39 196.5 96.34 196.38C95.67 194.24 95.01 192.1 94.36 189.95C94.35 189.94 94.35 189.94 94.35 189.92C89.46 173.51 85.88 156.53 84.99 139.56C84.96 139.05 84.93 138.53 84.92 138.01C84.56 130.35 84.83 122.68 85.71 115.07C86.21 110.91 86.92 106.77 87.84 102.68C90.22 92.1 94.25 81.97 99.78 72.66C110.8 54.08 127.62 39.25 148.2 33.87C148.73 33.73 149.25 33.6 149.78 33.47Z" fill="#3A6569" fill-opacity="1.000000" fill-rule="nonzero"/>
		<path id="Vector" d="M150.03 34.11C130.39 52.24 116.4 76.77 111.22 103.07C110.1 108.76 109.46 114.62 110.16 120.41C110.86 126.19 113.12 131.21 116.57 135.85C119.73 140.09 123.45 144.07 125.52 149.01C127.7 154.21 127.25 159.84 124.91 164.91C122.05 171.12 117.14 175.92 112.17 180.46C106.65 185.49 100.84 190.62 98 197.73C97.66 198.59 96.35 198.01 96.69 197.15C101.62 184.78 114.65 178.76 121.65 167.87C124.92 162.79 126.68 156.69 124.66 150.79C122.89 145.63 119.06 141.53 115.83 137.25C112.44 132.77 109.97 127.98 109 122.39C108.01 116.67 108.42 110.77 109.39 105.08C111.58 92.25 116.1 79.7 122.14 68.21C129.08 54.99 138.23 43.06 149.19 32.94C149.87 32.32 150.7 33.49 150.03 34.11L150.03 34.11Z" fill="#FFFFFF" fill-opacity="1.000000" fill-rule="nonzero"/>
		<path id="Vector" d="M112.46 94.44C108.15 92.93 104.51 89.93 102.2 85.98C99.88 82.03 99.05 77.38 99.84 72.87C100 71.96 101.42 72.17 101.26 73.08C100.52 77.28 101.3 81.61 103.46 85.28C105.62 88.96 109.01 91.74 113.04 93.12C113.91 93.42 113.33 94.74 112.46 94.44L112.46 94.44Z" fill="#FFFFFF" fill-opacity="1.000000" fill-rule="nonzero"/>
		<path id="Vector" d="M114.69 133.91C123.13 129.92 129.77 122.88 133.27 114.2C133.62 113.34 134.93 113.92 134.58 114.78C130.92 123.81 124 131.12 115.21 135.25C114.37 135.65 113.85 134.3 114.69 133.91L114.69 133.91Z" fill="#FFFFFF" fill-opacity="1.000000" fill-rule="nonzero"/>
		<path id="Vector" d="M130.28 56.48C131.83 57.41 133.58 57.94 135.38 58.03C137.19 58.12 138.98 57.75 140.61 56.97C141.44 56.56 141.96 57.91 141.13 58.31C139.32 59.17 137.34 59.57 135.35 59.48C133.36 59.39 131.42 58.81 129.7 57.8C129.53 57.71 129.39 57.57 129.33 57.39C129.26 57.22 129.26 57.02 129.33 56.85C129.41 56.67 129.55 56.54 129.73 56.47C129.91 56.4 130.1 56.4 130.28 56.48Z" fill="#FFFFFF" fill-opacity="1.000000" fill-rule="nonzero"/>
		<path id="Vector" d="M257.13 93.21C243.71 63.44 244.2 25.69 265.04 0.56C272.01 35.41 291.05 66.66 318.78 88.78C329.51 97.27 342.33 105.6 345.26 118.99C347.08 127.32 344.49 136.13 340.03 143.39C335.56 150.64 329.33 156.61 323.17 162.49L322.48 164.51C295.68 145.9 270.56 122.99 257.13 93.21Z" fill="#3A6569" fill-opacity="1.000000" fill-rule="nonzero"/>
		<path id="Vector" d="M265.62 0.92C260.82 27.25 264.38 55.29 276.04 79.41C278.56 84.63 281.57 89.7 285.6 93.9C289.63 98.09 294.45 100.73 299.99 102.36C305.06 103.84 310.41 104.77 315.03 107.46C319.9 110.3 322.93 115.07 324.1 120.53C325.54 127.21 324.5 134.01 323.25 140.63C321.87 147.98 320.31 155.59 322.32 162.98C322.57 163.87 321.17 164.2 320.92 163.3C317.43 150.45 324.22 137.78 323.27 124.86C322.83 118.83 320.57 112.9 315.42 109.4C310.91 106.35 305.39 105.39 300.24 103.93C294.84 102.4 289.99 100.06 285.86 96.18C281.64 92.21 278.43 87.25 275.78 82.12C269.83 70.56 265.9 57.81 263.82 44.99C261.43 30.24 261.57 15.2 264.25 0.5C264.41 -0.41 265.78 0.02 265.62 0.92L265.62 0.92Z" fill="#FFFFFF" fill-opacity="1.000000" fill-rule="nonzero"/>
		<path id="Vector" d="M271.84 71.77C267.49 73.17 262.79 72.97 258.57 71.22C254.35 69.46 250.89 66.25 248.82 62.17C248.4 61.35 249.66 60.66 250.08 61.48C252.01 65.29 255.23 68.27 259.16 69.9C263.09 71.53 267.47 71.7 271.51 70.37C272.39 70.08 272.71 71.49 271.84 71.77Z" fill="#FFFFFF" fill-opacity="1.000000" fill-rule="nonzero"/>
		<path id="Vector" d="M297.32 101.94C301.67 93.66 302.74 84.03 300.32 74.99C300.08 74.09 301.48 73.77 301.72 74.66C304.22 84.08 303.08 94.09 298.54 102.7C298.11 103.53 296.89 102.76 297.32 101.94L297.32 101.94Z" fill="#FFFFFF" fill-opacity="1.000000" fill-rule="nonzero"/>
		<path id="Vector" d="M263.28 30.71C265.07 30.52 266.79 29.89 268.28 28.87C269.78 27.85 270.99 26.47 271.82 24.86C272.24 24.04 273.46 24.8 273.04 25.62C272.12 27.39 270.77 28.91 269.13 30.04C267.48 31.17 265.59 31.88 263.6 32.11C263.42 32.15 263.23 32.11 263.07 32.01C262.91 31.91 262.79 31.76 262.74 31.57C262.7 31.39 262.73 31.19 262.83 31.03C262.93 30.87 263.09 30.75 263.28 30.71L263.28 30.71Z" fill="#FFFFFF" fill-opacity="1.000000" fill-rule="nonzero"/>
		<path id="Vector" d="M375.39 0.85C375.14 1.38 374.89 1.9 374.64 2.43C371.33 9.48 368.59 16.79 366.45 24.29C366.28 24.87 366.11 25.45 365.95 26.03C360.99 44.15 359.44 63.03 361.35 81.71C362.12 89.14 363.46 96.51 365.34 103.74C367.94 113.73 371.56 124.35 370.74 134.32C370.67 135.36 370.53 136.4 370.33 137.42L324.98 165.2C324.85 165.21 324.72 165.23 324.58 165.24L322.82 166.43C322.7 166.07 322.58 165.68 322.46 165.32C322.38 165.11 322.32 164.89 322.25 164.68C322.21 164.53 322.16 164.39 322.11 164.26C322.1 164.21 322.08 164.17 322.07 164.13C322.02 164 321.99 163.88 321.95 163.76C321.27 161.63 320.61 159.48 319.96 157.33C319.96 157.32 319.96 157.32 319.96 157.3C315.06 140.89 311.49 123.92 310.59 106.94C310.57 106.43 310.53 105.91 310.53 105.39C310.17 97.74 310.43 90.06 311.32 82.45C311.82 78.29 312.53 74.15 313.44 70.06C315.83 59.49 319.86 49.35 325.39 40.04C336.4 21.47 353.22 6.63 373.81 1.25C374.34 1.11 374.85 0.98 375.39 0.85Z" fill="#3A6569" fill-opacity="1.000000" fill-rule="nonzero"/>
		<path id="Vector" d="M375.64 1.49C356 19.62 342.01 44.16 336.83 70.45C335.71 76.14 335.07 82.01 335.77 87.79C336.46 93.57 338.73 98.59 342.18 103.23C345.33 107.48 349.05 111.45 351.12 116.39C353.31 121.6 352.86 127.22 350.52 132.3C347.66 138.5 342.74 143.31 337.77 147.84C332.25 152.87 326.44 158 323.61 165.12C323.27 165.98 321.95 165.39 322.3 164.53C327.22 152.16 340.26 146.14 347.26 135.25C350.52 130.17 352.28 124.07 350.26 118.17C348.5 113.01 344.67 108.91 341.44 104.64C338.04 100.15 335.57 95.36 334.61 89.77C333.62 84.05 334.03 78.15 335 72.46C337.19 59.63 341.7 47.09 347.75 35.59C354.69 22.37 363.84 10.45 374.8 0.32C375.47 -0.3 376.31 0.87 375.64 1.49L375.64 1.49Z" fill="#FFFFFF" fill-opacity="1.000000" fill-rule="nonzero"/>
		<path id="Vector" d="M338.06 61.82C333.75 60.31 330.11 57.31 327.8 53.36C325.49 49.41 324.66 44.76 325.44 40.25C325.61 39.34 327.03 39.55 326.87 40.46C326.12 44.66 326.9 48.99 329.06 52.67C331.22 56.34 334.62 59.12 338.64 60.5C339.52 60.8 338.93 62.12 338.06 61.82L338.06 61.82Z" fill="#FFFFFF" fill-opacity="1.000000" fill-rule="nonzero"/>
		<path id="Vector" d="M340.3 101.29C348.74 97.3 355.38 90.26 358.88 81.58C359.22 80.72 360.54 81.31 360.19 82.16C356.53 91.19 349.61 98.5 340.81 102.64C339.97 103.03 339.46 101.68 340.3 101.29L340.3 101.29Z" fill="#FFFFFF" fill-opacity="1.000000" fill-rule="nonzero"/>
		<path id="Vector" d="M355.88 23.86C357.43 24.79 359.19 25.33 360.99 25.41C362.79 25.5 364.59 25.13 366.22 24.35C367.05 23.94 367.56 25.29 366.73 25.69C364.93 26.55 362.95 26.95 360.95 26.86C358.96 26.77 357.02 26.19 355.3 25.18C355.13 25.1 355 24.95 354.93 24.78C354.86 24.6 354.87 24.4 354.94 24.23C355.01 24.05 355.16 23.92 355.34 23.85C355.51 23.78 355.71 23.78 355.88 23.86Z" fill="#FFFFFF" fill-opacity="1.000000" fill-rule="nonzero"/>
		<path id="Vector" d="M86.01 314.07L90.96 317.91L110.23 321.27L131.65 267.88C131.65 267.88 144.77 226.73 181.5 235.15L299.55 233.05C299.55 233.05 335.79 229.32 341.78 246.46C342.92 249.71 373.52 321.43 373.52 321.43L394.98 318.39L392.41 257.25L341.44 138.61L252.85 133.07L161.56 139.4L86.01 314.07Z" fill="#03183F" fill-opacity="1.000000" fill-rule="nonzero"/>
		<path id="Vector" d="M218.22 204.64C218.22 223.52 202.95 238.83 184.12 238.83C165.29 238.83 150.02 223.52 150.02 204.64C150.02 185.75 165.29 170.44 184.12 170.44C202.95 170.44 218.22 185.75 218.22 204.64Z" fill="#E6E6E6" fill-opacity="1.000000" fill-rule="evenodd"/>
		<path id="Vector" d="M332.6 204.64C332.6 223.52 317.33 238.83 298.5 238.83C279.66 238.83 264.39 223.52 264.39 204.64C264.39 185.75 279.66 170.44 298.5 170.44C317.33 170.44 332.6 185.75 332.6 204.64Z" fill="#E6E6E6" fill-opacity="1.000000" fill-rule="evenodd"/>
		<path id="Vector" d="M144.25 92.58L158.29 89.82C158.29 89.82 264.01 74.69 330.83 92.58L325.78 106.78L148.97 105.73L144.25 92.58Z" fill="#E6E6E6" fill-opacity="1.000000" fill-rule="nonzero"/>
		<path id="Vector" d="M286.79 165.97L197.07 165.97C186.17 165.97 176.76 158.41 174.68 147.98L164.86 98.74C164.64 97.66 164.65 96.56 164.89 95.48C165.12 94.41 165.58 93.4 166.22 92.52C166.9 91.59 167.75 90.81 168.74 90.23C169.73 89.65 170.83 89.27 171.97 89.13C219.29 83.24 266.14 83.23 311.24 89.1C312.36 89.24 313.44 89.61 314.42 90.18C315.39 90.76 316.23 91.53 316.9 92.44C317.54 93.32 318 94.31 318.24 95.37C318.48 96.43 318.5 97.52 318.3 98.59L309.24 147.68C307.28 158.28 297.84 165.97 286.79 165.97Z" fill="#9C0332" fill-opacity="1.000000" fill-rule="nonzero"/>
		<path id="Vector" d="M104.33 100.6L104.72 93.55C104.79 92.45 105.11 91.38 105.67 90.44C106.23 89.5 107.02 88.7 107.95 88.13C113.62 84.64 128.9 76.97 148.4 80.99C149.77 81.28 151.02 81.98 151.98 83C152.93 84.02 153.56 85.31 153.76 86.7L154.28 90.36L104.33 100.6Z" fill="#03183F" fill-opacity="1.000000" fill-rule="nonzero"/>
		<path id="Vector" d="M379.33 100.6L329.39 90.36L330.23 84.47C330.32 83.78 330.63 83.13 331.09 82.6C331.56 82.08 332.18 81.71 332.86 81.54C355.35 75.88 372.56 85.93 377.3 89.15C377.75 89.46 378.12 89.86 378.39 90.34C378.66 90.81 378.82 91.34 378.85 91.88L379.33 100.6Z" fill="#03183F" fill-opacity="1.000000" fill-rule="nonzero"/>
		<path id="Vector" d="M88.48 318.66C87.27 318.67 86.09 318.34 85.07 317.7C71.7 309.87 63.36 295.52 60.31 275.06C57.79 258.16 58.84 236.95 63.44 212.02C71.58 167.81 88.66 123.63 95.62 106.68C96.55 104.44 97.98 102.46 99.81 100.88C101.64 99.3 103.81 98.17 106.15 97.59C120.51 94.05 145.57 88.11 152.12 88.11C161.08 88.11 165.94 96.57 165.99 96.66L166.01 96.73L173.89 130.98L173.89 131.47C178.23 146.21 175.01 156.86 171.53 163.2C167.76 170.08 162.87 173.52 162.83 173.55C155.16 179.4 142.67 198.25 130.24 222.74C117.32 248.19 107.75 273.3 104.63 289.91C100.81 310.25 95.21 316.47 91.18 318.11C90.32 318.47 89.4 318.66 88.48 318.66Z" fill="#E6E6E6" fill-opacity="1.000000" fill-rule="nonzero"/>
		<path id="Vector" d="M283.83 161.76L199.06 161.76C194.05 161.75 189.21 160 185.35 156.81C181.49 153.62 178.85 149.18 177.89 144.26L168.61 96.37C168.41 95.31 168.42 94.22 168.65 93.16C168.88 92.11 169.33 91.11 169.96 90.23C170.59 89.36 171.39 88.62 172.31 88.07C173.24 87.51 174.27 87.16 175.34 87.02C220.05 81.29 264.33 81.28 306.94 86.99C307.99 87.13 309 87.49 309.91 88.04C310.83 88.58 311.62 89.31 312.24 90.17C312.87 91.03 313.31 92.01 313.55 93.05C313.79 94.09 313.81 95.17 313.62 96.22L305.06 143.97C304.16 148.96 301.55 153.48 297.67 156.73C293.79 159.98 288.89 161.76 283.83 161.76Z" fill="#E6E6E6" fill-opacity="1.000000" fill-rule="nonzero"/>
		<path id="Vector" d="M395.19 318.66C394.26 318.66 393.34 318.47 392.48 318.11C388.46 316.47 382.86 310.25 379.04 289.91C375.92 273.3 366.34 248.19 353.42 222.74C341 198.25 328.51 179.4 320.83 173.54C320.79 173.52 315.91 170.08 312.14 163.2C308.66 156.86 305.43 146.21 309.78 131.47L309.78 130.92L317.66 96.69L317.68 96.66C317.73 96.57 322.58 88.11 331.55 88.11C338.1 88.11 363.16 94.05 377.51 97.59C379.85 98.17 382.03 99.3 383.86 100.88C385.69 102.46 387.12 104.44 388.04 106.68C395.01 123.63 412.08 167.81 420.23 212.02C424.83 236.95 425.88 258.16 423.36 275.06C420.31 295.52 411.97 309.87 398.58 317.71C397.56 318.35 396.39 318.68 395.19 318.66Z" fill="#E6E6E6" fill-opacity="1.000000" fill-rule="nonzero"/>
		<path id="Vector" d="M204.58 198.85C204.58 210.18 195.42 219.37 184.12 219.37C172.82 219.37 163.66 210.18 163.66 198.85C163.66 187.52 172.82 178.33 184.12 178.33C195.42 178.33 204.58 187.52 204.58 198.85Z" fill="#03183F" fill-opacity="1.000000" fill-rule="evenodd"/>
		<path id="Vector" d="M197.76 198.85C197.76 206.4 191.65 212.53 184.12 212.53C176.59 212.53 170.48 206.4 170.48 198.85C170.48 191.3 176.59 185.17 184.12 185.17C191.65 185.17 197.76 191.3 197.76 198.85Z" fill="#E6E6E6" fill-opacity="1.000000" fill-rule="evenodd"/>
		<path id="Vector" d="M318.96 198.85C318.96 210.18 309.8 219.37 298.5 219.37C287.2 219.37 278.03 210.18 278.03 198.85C278.03 187.52 287.2 178.33 298.5 178.33C309.8 178.33 318.96 187.52 318.96 198.85Z" fill="#03183F" fill-opacity="1.000000" fill-rule="evenodd"/>
		<path id="Vector" d="M312.14 198.85C312.14 206.4 306.03 212.53 298.5 212.53C290.96 212.53 284.85 206.4 284.85 198.85C284.85 191.3 290.96 185.17 298.5 185.17C306.03 185.17 312.14 191.3 312.14 198.85Z" fill="#E6E6E6" fill-opacity="1.000000" fill-rule="evenodd"/>
		<path id="Vector" d="M230.29 172.55C230.29 173.42 229.59 174.12 228.72 174.12C227.85 174.12 227.14 173.42 227.14 172.55C227.14 171.67 227.85 170.97 228.72 170.97C229.59 170.97 230.29 171.67 230.29 172.55Z" fill="#E6E6E6" fill-opacity="1.000000" fill-rule="evenodd"/>
		<path id="Vector" d="M237.11 172.55C237.11 173.42 236.41 174.12 235.54 174.12C234.67 174.12 233.96 173.42 233.96 172.55C233.96 171.67 234.67 170.97 235.54 170.97C236.41 170.97 237.11 171.67 237.11 172.55Z" fill="#E6E6E6" fill-opacity="1.000000" fill-rule="evenodd"/>
		<path id="Vector" d="M233.96 178.33C233.96 179.2 233.26 179.91 232.39 179.91C231.52 179.91 230.81 179.2 230.81 178.33C230.81 177.46 231.52 176.75 232.39 176.75C233.26 176.75 233.96 177.46 233.96 178.33Z" fill="#E6E6E6" fill-opacity="1.000000" fill-rule="evenodd"/>
		<path id="Vector" d="M240.26 178.33C240.26 179.2 239.55 179.91 238.68 179.91C237.82 179.91 237.11 179.2 237.11 178.33C237.11 177.46 237.82 176.75 238.68 176.75C239.55 176.75 240.26 177.46 240.26 178.33Z" fill="#E6E6E6" fill-opacity="1.000000" fill-rule="evenodd"/>
		<path id="Vector" d="M246.55 178.33C246.55 179.2 245.85 179.91 244.98 179.91C244.11 179.91 243.41 179.2 243.41 178.33C243.41 177.46 244.11 176.75 244.98 176.75C245.85 176.75 246.55 177.46 246.55 178.33Z" fill="#E6E6E6" fill-opacity="1.000000" fill-rule="evenodd"/>
		<path id="Vector" d="M252.85 178.33C252.85 179.2 252.15 179.91 251.28 179.91C250.41 179.91 249.7 179.2 249.7 178.33C249.7 177.46 250.41 176.75 251.28 176.75C252.15 176.75 252.85 177.46 252.85 178.33Z" fill="#E6E6E6" fill-opacity="1.000000" fill-rule="evenodd"/>
		<path id="Vector" d="M243.93 172.55C243.93 173.42 243.23 174.12 242.36 174.12C241.49 174.12 240.78 173.42 240.78 172.55C240.78 171.67 241.49 170.97 242.36 170.97C243.23 170.97 243.93 171.67 243.93 172.55Z" fill="#E6E6E6" fill-opacity="1.000000" fill-rule="evenodd"/>
		<path id="Vector" d="M250.75 172.55C250.75 173.42 250.05 174.12 249.18 174.12C248.31 174.12 247.6 173.42 247.6 172.55C247.6 171.67 248.31 170.97 249.18 170.97C250.05 170.97 250.75 171.67 250.75 172.55Z" fill="#E6E6E6" fill-opacity="1.000000" fill-rule="evenodd"/>
		<path id="Vector" d="M257.57 172.55C257.57 173.42 256.87 174.12 256 174.12C255.13 174.12 254.42 173.42 254.42 172.55C254.42 171.67 255.13 170.97 256 170.97C256.87 170.97 257.57 171.67 257.57 172.55Z" fill="#E6E6E6" fill-opacity="1.000000" fill-rule="evenodd"/>
		<path id="Vector" d="M248.65 221.21L235.01 221.21C234.39 221.21 233.79 220.96 233.34 220.52C232.9 220.07 232.65 219.47 232.65 218.84C232.65 218.21 232.9 217.61 233.34 217.17C233.79 216.72 234.39 216.47 235.01 216.47L248.65 216.47C249.28 216.47 249.88 216.72 250.32 217.17C250.77 217.61 251.01 218.21 251.01 218.84C251.01 219.47 250.77 220.07 250.32 220.52C249.88 220.96 249.28 221.21 248.65 221.21Z" fill="#E6E6E6" fill-opacity="1.000000" fill-rule="nonzero"/>
		<path id="Vector" d="M158.33 118.3C157.45 118.3 156.59 118 155.91 117.45C155.22 116.9 154.73 116.13 154.53 115.27L152.44 106.37C152.2 105.35 152.37 104.29 152.92 103.41C153.47 102.52 154.34 101.89 155.35 101.65C156.36 101.41 157.42 101.59 158.3 102.13C159.18 102.68 159.81 103.56 160.05 104.57L162.14 113.47C162.28 114.05 162.28 114.65 162.15 115.23C162.02 115.81 161.77 116.35 161.4 116.81C161.03 117.27 160.57 117.65 160.03 117.91C159.5 118.16 158.92 118.3 158.33 118.3Z" fill="#03183F" fill-opacity="1.000000" fill-rule="nonzero"/>
		<path id="Vector" d="M325.86 117.77C325.27 117.77 324.69 117.64 324.16 117.38C323.62 117.12 323.16 116.75 322.79 116.28C322.42 115.82 322.17 115.28 322.04 114.7C321.91 114.12 321.91 113.52 322.04 112.95L324.14 104.04C324.38 103.03 325.01 102.15 325.89 101.61C326.77 101.06 327.83 100.89 328.84 101.13C329.85 101.37 330.73 102 331.27 102.88C331.82 103.76 331.99 104.83 331.75 105.84L329.66 114.75C329.46 115.61 328.97 116.37 328.29 116.92C327.6 117.47 326.74 117.77 325.86 117.77Z" fill="#03183F" fill-opacity="1.000000" fill-rule="nonzero"/>
		<path id="Vector" d="M129.46 144.58C128.18 144.59 126.92 144.19 125.87 143.45L121.48 140.36C120.65 139.78 119.97 139.01 119.51 138.12C119.04 137.22 118.8 136.22 118.8 135.21L118.8 125.77C118.8 123.87 119.55 122.06 120.89 120.72C122.23 119.38 124.04 118.62 125.93 118.62L132.66 118.62C134.55 118.62 136.36 119.38 137.69 120.72C139.03 122.06 139.78 123.87 139.78 125.77L139.78 135.3C139.78 136.29 139.55 137.26 139.11 138.14C138.67 139.02 138.02 139.78 137.23 140.37L133.19 143.36C132.11 144.16 130.8 144.59 129.46 144.58Z" fill="#03183F" fill-opacity="1.000000" fill-rule="nonzero"/>
		<path id="Vector" d="M132.66 179.12L125.93 179.12C124.04 179.12 122.23 178.37 120.89 177.02C119.55 175.68 118.8 173.87 118.8 171.97L118.8 162.53C118.8 161.52 119.04 160.52 119.51 159.63C119.97 158.73 120.65 157.96 121.48 157.38L125.87 154.29C126.94 153.54 128.23 153.14 129.54 153.16C130.85 153.17 132.13 153.6 133.19 154.38L137.23 157.37C138.02 157.96 138.67 158.72 139.11 159.6C139.55 160.48 139.78 161.45 139.78 162.44L139.78 171.97C139.78 173.87 139.03 175.68 137.69 177.02C136.36 178.37 134.55 179.12 132.66 179.12Z" fill="#03183F" fill-opacity="1.000000" fill-rule="nonzero"/>
		<path id="Vector" d="M153.64 159.39L144.23 159.39C143.22 159.39 142.22 159.15 141.33 158.68C140.44 158.21 139.67 157.54 139.09 156.71L136.01 152.31C135.26 151.23 134.86 149.94 134.88 148.62C134.89 147.3 135.32 146.03 136.1 144.97L139.08 140.91C139.67 140.12 140.43 139.47 141.31 139.03C142.18 138.58 143.15 138.35 144.14 138.35L153.64 138.35C155.53 138.35 157.34 139.11 158.68 140.45C160.02 141.78 160.77 143.6 160.77 145.5L160.77 152.24C160.77 154.14 160.02 155.96 158.68 157.3C157.34 158.64 155.53 159.39 153.64 159.39Z" fill="#03183F" fill-opacity="1.000000" fill-rule="nonzero"/>
		<path id="Vector" d="M113.83 159.39L104.42 159.39C102.53 159.39 100.72 158.64 99.38 157.3C98.04 155.96 97.29 154.14 97.29 152.24L97.29 145.5C97.29 143.6 98.04 141.78 99.38 140.45C100.72 139.11 102.53 138.35 104.42 138.35L113.92 138.35C114.91 138.35 115.88 138.58 116.75 139.03C117.63 139.47 118.39 140.12 118.98 140.91L121.96 144.97C122.74 146.03 123.17 147.3 123.18 148.62C123.2 149.94 122.8 151.23 122.05 152.31L118.97 156.71C118.39 157.54 117.62 158.21 116.73 158.68C115.83 159.15 114.84 159.39 113.83 159.39Z" fill="#03183F" fill-opacity="1.000000" fill-rule="nonzero"/>
		<path id="Vector" d="M366.7 122.04C366.7 128.72 361.3 134.14 354.64 134.14C347.97 134.14 342.57 128.72 342.57 122.04C342.57 115.36 347.97 109.94 354.64 109.94C361.3 109.94 366.7 115.36 366.7 122.04Z" fill="#03183F" fill-opacity="1.000000" fill-rule="evenodd"/>
		<path id="Vector" d="M393.46 149.92C393.46 156.61 388.06 162.02 381.39 162.02C374.73 162.02 369.33 156.61 369.33 149.92C369.33 143.24 374.73 137.82 381.39 137.82C388.06 137.82 393.46 143.24 393.46 149.92Z" fill="#03183F" fill-opacity="1.000000" fill-rule="evenodd"/>
		<path id="Vector" d="M366.7 176.23C366.7 182.91 361.3 188.33 354.64 188.33C347.97 188.33 342.57 182.91 342.57 176.23C342.57 169.55 347.97 164.13 354.64 164.13C361.3 164.13 366.7 169.55 366.7 176.23Z" fill="#03183F" fill-opacity="1.000000" fill-rule="evenodd"/>
		<path id="Vector" d="M339.95 149.4C339.95 156.08 334.54 161.5 327.88 161.5C321.21 161.5 315.81 156.08 315.81 149.4C315.81 142.71 321.21 137.3 327.88 137.3C334.54 137.3 339.95 142.71 339.95 149.4Z" fill="#03183F" fill-opacity="1.000000" fill-rule="evenodd"/>
		<path id="Vector" d="M381.39 157.81C379.84 157.81 378.32 157.35 377.02 156.48C375.73 155.62 374.72 154.38 374.12 152.94C373.53 151.5 373.37 149.91 373.68 148.38C373.98 146.85 374.73 145.45 375.83 144.34C376.93 143.24 378.33 142.49 379.86 142.18C381.39 141.88 382.97 142.03 384.41 142.63C385.84 143.23 387.07 144.24 387.94 145.54C388.8 146.84 389.26 148.36 389.26 149.92C389.26 152.02 388.43 154.02 386.96 155.5C385.48 156.98 383.48 157.81 381.39 157.81ZM381.39 143.08C380.04 143.08 378.73 143.49 377.6 144.24C376.48 144.99 375.61 146.06 375.09 147.31C374.58 148.56 374.44 149.93 374.7 151.26C374.97 152.58 375.62 153.8 376.57 154.76C377.52 155.72 378.74 156.37 380.06 156.63C381.39 156.89 382.76 156.76 384 156.24C385.25 155.72 386.32 154.85 387.07 153.72C387.81 152.6 388.21 151.28 388.21 149.92C388.21 148.11 387.49 146.37 386.21 145.09C384.94 143.81 383.2 143.09 381.39 143.08Z" fill="#E6E6E6" fill-opacity="1.000000" fill-rule="nonzero"/>
		<path id="Vector" d="M363.07 127.91L347.25 127.69L355.35 114.06L363.07 127.91ZM349.08 126.66L361.27 126.83L355.32 116.17L349.08 126.66Z" fill="#E6E6E6" fill-opacity="1.000000" fill-rule="nonzero"/>
		<path id="Vector" d="M334.17 155.71L321.58 155.71L321.58 143.08L334.17 143.08L334.17 155.71ZM322.63 154.66L333.12 154.66L333.12 144.14L322.63 144.14L322.63 154.66Z" fill="#E6E6E6" fill-opacity="1.000000" fill-rule="nonzero"/>
		<path id="Vector" d="M361.15 181.66L355.38 175.89L360.47 170.8L359.72 170.05L354.64 175.14L349.55 170.05L348.81 170.8L353.89 175.89L348.12 181.66L348.87 182.41L354.64 176.63L360.41 182.41L361.15 181.66Z" fill="#E6E6E6" fill-opacity="1.000000" fill-rule="nonzero"/>
		<path id="Vector" d="M129.45 38.84C127.89 38.84 126.37 38.38 125.07 37.51C123.78 36.64 122.77 35.41 122.18 33.97C121.58 32.53 121.42 30.94 121.73 29.41C122.03 27.88 122.78 26.47 123.88 25.37C124.98 24.27 126.39 23.52 127.91 23.21C129.44 22.91 131.02 23.06 132.46 23.66C133.9 24.26 135.13 25.27 135.99 26.57C136.86 27.86 137.32 29.39 137.32 30.95C137.31 33.04 136.48 35.05 135.01 36.53C133.53 38.01 131.53 38.84 129.45 38.84ZM129.45 24.11C128.1 24.11 126.78 24.51 125.66 25.26C124.54 26.02 123.66 27.08 123.15 28.33C122.63 29.58 122.49 30.96 122.76 32.28C123.02 33.61 123.67 34.83 124.62 35.79C125.58 36.74 126.79 37.39 128.12 37.66C129.44 37.92 130.81 37.79 132.06 37.27C133.3 36.75 134.37 35.87 135.12 34.75C135.87 33.63 136.27 32.3 136.27 30.95C136.27 29.14 135.55 27.4 134.27 26.12C132.99 24.83 131.25 24.11 129.45 24.11Z" fill="#E6E6E6" fill-opacity="1.000000" fill-rule="nonzero"/>
		<path id="Vector" d="M111.65 25.77L95.83 25.55L103.93 11.93L111.65 25.77ZM97.66 24.52L109.84 24.7L103.9 14.03L97.66 24.52Z" fill="#E6E6E6" fill-opacity="1.000000" fill-rule="nonzero"/>
		<path id="Vector" d="M88.37 44.97L75.78 44.97L75.78 32.34L88.37 32.34L88.37 44.97ZM76.83 43.91L87.32 43.91L87.32 33.39L76.83 33.39L76.83 43.91Z" fill="#E6E6E6" fill-opacity="1.000000" fill-rule="nonzero"/>
		<path id="Vector" d="M99.76 68.47L93.99 62.7L99.07 57.61L98.33 56.87L93.24 61.96L88.16 56.87L87.41 57.61L92.5 62.7L86.73 68.47L87.47 69.22L93.24 63.44L99.02 69.22L99.76 68.47Z" fill="#E6E6E6" fill-opacity="1.000000" fill-rule="nonzero"/>
		<g opacity="0.200000">
			<path id="Vector" d="M455.11 181.23L434.74 196.59L457.73 186.49L455.11 181.23Z" fill="#000000" fill-opacity="1.000000" fill-rule="nonzero"/>
		</g>
		<path id="Vector" d="M78.4 200.17L52.69 201.22L49.54 183.86L71.58 177.02L78.4 200.17Z" fill="#A0616A" fill-opacity="1.000000" fill-rule="nonzero"/>
		<path id="Vector" d="M68.95 157.62L63.21 151.76L70.24 140.98L82.28 120.9C81.88 120.03 81.76 119.07 81.93 118.13C82.09 117.19 82.54 116.33 83.2 115.65C83.87 114.98 84.72 114.52 85.66 114.34C86.59 114.16 87.55 114.27 88.42 114.65C89.29 115.03 90.02 115.67 90.52 116.48C91.02 117.28 91.26 118.23 91.22 119.18C91.17 120.13 90.84 121.04 90.26 121.8C89.69 122.55 88.9 123.12 88 123.41L78.07 144.85L68.95 157.62Z" fill="#A0616A" fill-opacity="1.000000" fill-rule="nonzero"/>
		<path id="Vector" d="M62.6 170.98C61.92 172.03 60.96 172.86 59.83 173.37C58.7 173.88 57.45 174.06 56.22 173.88C55.05 173.74 53.95 173.26 53.05 172.5C52.14 171.75 51.48 170.74 51.14 169.61C50.89 168.81 50.82 167.96 50.93 167.13C51.04 166.3 51.33 165.5 51.78 164.79C55.61 158.3 62.69 149.74 62.76 149.65L62.87 149.52L74.81 152.11L62.6 170.98Z" fill="#9C0332" fill-opacity="1.000000" fill-rule="nonzero"/>
		<path id="Vector" d="M72.27 314.48L79.4 314.48L82.79 286.91L72.27 286.91L72.27 314.48Z" fill="#A0616A" fill-opacity="1.000000" fill-rule="nonzero"/>
		<path id="Vector" d="M70.45 312.15L84.49 312.15L84.49 312.15C86.87 312.15 89.14 313.09 90.82 314.77C92.5 316.46 93.44 318.74 93.44 321.12L93.44 321.41L70.45 321.41L70.45 312.15Z" fill="#03183F" fill-opacity="1.000000" fill-rule="nonzero"/>
		<path id="Vector" d="M16.76 311.39L23.81 312.45L31.27 285.7L22.03 284.12L16.76 311.39Z" fill="#A0616A" fill-opacity="1.000000" fill-rule="nonzero"/>
		<path id="Vector" d="M15.31 308.81L29.19 310.91L29.19 310.91C31.54 311.27 33.65 312.54 35.05 314.46C36.46 316.37 37.06 318.77 36.7 321.12L36.66 321.41L13.93 317.97L15.31 308.81Z" fill="#03183F" fill-opacity="1.000000" fill-rule="nonzero"/>
		<path id="Vector" d="M51.64 195.96L76.3 191.75L83.93 207.52L84.22 310.44L70.69 310.36L65.03 227.05L28.97 304.03L14.44 302.28L46.13 219.76C46.13 219.76 44.39 205.19 49.91 197.9L51.64 195.96Z" fill="#03183F" fill-opacity="1.000000" fill-rule="nonzero"/>
		<path id="Vector" d="M42.49 164.89C42.11 163.75 42.07 162.53 42.37 161.37C42.67 160.21 43.3 159.17 44.19 158.36L47.69 155.17L57.57 153.5L63.75 152.38L73.68 181.23L49.56 192.34C47.45 191.88 46.6 190.72 47.83 188.41L42.49 164.89Z" fill="#9C0332" fill-opacity="1.000000" fill-rule="nonzero"/>
		<path id="Vector" d="M64.62 174.62L71.52 170.21L80.58 179.33L97.69 195.29C98.61 195.09 99.58 195.17 100.46 195.52C101.34 195.88 102.09 196.49 102.61 197.29C103.14 198.08 103.41 199.01 103.39 199.96C103.37 200.92 103.07 201.84 102.52 202.61C101.96 203.38 101.19 203.97 100.3 204.29C99.41 204.62 98.44 204.66 97.52 204.42C96.6 204.18 95.78 203.66 95.16 202.94C94.54 202.22 94.15 201.33 94.05 200.39L75.18 186.21L64.62 174.62Z" fill="#A0616A" fill-opacity="1.000000" fill-rule="nonzero"/>
		<path id="Vector" d="M52.89 165.62C52.01 164.75 51.4 163.63 51.13 162.42C50.87 161.2 50.95 159.94 51.39 158.77C51.76 157.65 52.46 156.67 53.38 155.94C54.31 155.21 55.43 154.77 56.6 154.67C57.43 154.59 58.27 154.7 59.06 154.98C59.85 155.26 60.57 155.71 61.17 156.29C66.71 161.4 73.6 170.11 73.67 170.2L73.78 170.34L68.78 181.51L52.89 165.62Z" fill="#9C0332" fill-opacity="1.000000" fill-rule="nonzero"/>
		<path id="Vector" d="M64.08 139.12C64.08 145.12 59.22 149.99 53.23 149.99C47.24 149.99 42.39 145.12 42.39 139.12C42.39 133.11 47.24 128.24 53.23 128.24C59.22 128.24 64.08 133.11 64.08 139.12Z" fill="#A0616A" fill-opacity="1.000000" fill-rule="evenodd"/>
		<path id="Vector" d="M44.45 154.61C42.77 154.61 41.09 154.51 39.42 154.3L39.19 154.27L37.45 144.76C36.71 140.73 37.53 136.57 39.76 133.13C41.98 129.69 45.43 127.23 49.4 126.27C49.67 126.2 49.95 126.21 50.21 126.29C50.47 126.37 50.7 126.52 50.88 126.73L51.3 126.58C52.9 126.02 54.59 125.78 56.27 125.88C57.96 125.98 59.61 126.41 61.13 127.14C62.65 127.88 64.01 128.91 65.14 130.17C66.26 131.44 67.13 132.91 67.68 134.51L67.79 134.81L65.01 135.78C64.14 136.08 63.35 136.58 62.7 137.22C62.05 137.87 61.55 138.66 61.23 139.52C60.92 140.39 60.81 141.31 60.89 142.23C60.98 143.14 61.27 144.03 61.75 144.81L64.59 149.56L64.29 149.71C58.15 152.88 51.36 154.56 44.45 154.61Z" fill="#03183F" fill-opacity="1.000000" fill-rule="nonzero"/>
		<path id="Vector" d="M417.05 200.12C417.18 199.51 417.43 198.94 417.8 198.44C418.17 197.94 418.65 197.53 419.19 197.24C419.74 196.94 420.34 196.77 420.96 196.74C421.58 196.7 422.2 196.8 422.77 197.04L432.64 185.64L434.74 193.19L425.05 202.85C424.6 203.8 423.82 204.54 422.86 204.95C421.9 205.35 420.83 205.39 419.84 205.05C418.85 204.71 418.02 204.02 417.51 203.12C417 202.21 416.83 201.14 417.05 200.12L417.05 200.12Z" fill="#FFB6B6" fill-opacity="1.000000" fill-rule="nonzero"/>
		<path id="f348f81f-b961-4ae4-bc6b-758f6acfb12a" d="M461.07 150L465.11 149.78L465.71 152.36C465.71 152.36 465.65 155.66 461.97 162.51C458.29 169.37 429.74 199.89 429.74 199.89L423.56 192.85L438.84 177.07L448.09 160.53L461.07 150Z" fill="#9C0332" fill-opacity="1.000000" fill-rule="nonzero"/>
		<path id="Path 2960" d="M0.65 322L480.34 322C480.51 322 480.68 321.93 480.8 321.8C480.93 321.68 481 321.51 481 321.34C481 321.17 480.93 321 480.8 320.88C480.68 320.75 480.51 320.68 480.34 320.68L0.65 320.68C0.48 320.68 0.31 320.75 0.19 320.88C0.06 321 0 321.17 0 321.34C0 321.51 0.06 321.68 0.19 321.8C0.31 321.93 0.48 322 0.65 322Z" fill="#3F3D56" fill-opacity="0.400000" fill-rule="nonzero"/>
	</g>
</svg>
